/* XPM */
static char * green_xpm[] = {
"15 17 166 2",
"  	c None",
". 	c #97949D",
"+ 	c #59595B",
"@ 	c #272727",
"# 	c #10110C",
"$ 	c #282923",
"% 	c #585951",
"& 	c #9D9E96",
"* 	c #6C726E",
"= 	c #3E4742",
"- 	c #918B95",
"; 	c #BDB8BF",
"> 	c #CCC8C9",
", 	c #BAB6B5",
"' 	c #8C8887",
") 	c #4A4647",
"! 	c #666168",
"~ 	c #667163",
"{ 	c #354C32",
"] 	c #7C9B7B",
"^ 	c #CED4D2",
"/ 	c #E8EEEA",
"( 	c #E8F0E5",
"_ 	c #E3EBE0",
": 	c #D1D8D0",
"< 	c #898F8F",
"[ 	c #535762",
"} 	c #636677",
"| 	c #8F9591",
"1 	c #162D13",
"2 	c #557C4D",
"3 	c #7BAF71",
"4 	c #9DC38A",
"5 	c #A4CA8D",
"6 	c #AED594",
"7 	c #ACD392",
"8 	c #80A478",
"9 	c #4A6B4E",
"0 	c #12321D",
"a 	c #999999",
"b 	c #4D5651",
"c 	c #3D5C3C",
"d 	c #497D3F",
"e 	c #539442",
"f 	c #6AAE37",
"g 	c #6CB035",
"h 	c #6EB336",
"i 	c #65A835",
"j 	c #5A9A39",
"k 	c #448131",
"l 	c #2D6923",
"m 	c #4C4C4C",
"n 	c #0B3D18",
"o 	c #327C31",
"p 	c #4A9224",
"q 	c #66A120",
"r 	c #65B32C",
"s 	c #6DB633",
"t 	c #77BA37",
"u 	c #79B931",
"v 	c #72B226",
"w 	c #60A524",
"x 	c #4B922A",
"y 	c #3B832F",
"z 	c #0F3911",
"A 	c #124616",
"B 	c #509C41",
"C 	c #63AF33",
"D 	c #72B52A",
"E 	c #7DC641",
"F 	c #87CE4E",
"G 	c #8BCD51",
"H 	c #8BCC4A",
"I 	c #82C63D",
"J 	c #6FB72F",
"K 	c #5DA92F",
"L 	c #509E31",
"M 	c #193F1A",
"N 	c #1B4F11",
"O 	c #59A938",
"P 	c #6DC032",
"Q 	c #83CD38",
"R 	c #93D653",
"S 	c #A0E066",
"T 	c #A1E06D",
"U 	c #A3E36B",
"V 	c #98DE57",
"W 	c #83D140",
"X 	c #71C436",
"Y 	c #5AB027",
"Z 	c #254627",
"` 	c #366423",
" .	c #63AE37",
"..	c #7FD340",
"+.	c #93E34C",
"@.	c #A9E665",
"#.	c #B6F17B",
"$.	c #B9F488",
"%.	c #B5F583",
"&.	c #A1E864",
"*.	c #90DE4C",
"=.	c #80D33B",
"-.	c #5BAF1B",
";.	c #3D5640",
">.	c #50733D",
",.	c #5D9A33",
"'.	c #89D24D",
").	c #9DEA5C",
"!.	c #BFF677",
"~.	c #C4FB86",
"{.	c #C9FF97",
"].	c #C6FF93",
"^.	c #B5F779",
"/.	c #AAF26A",
"(.	c #94DC54",
"_.	c #5CA321",
":.	c #5D6F61",
"<.	c #7D8F75",
"[.	c #52793A",
"}.	c #81B956",
"|.	c #B9F97F",
"1.	c #CDFF84",
"2.	c #C6FB85",
"3.	c #C8FF90",
"4.	c #CBFF90",
"5.	c #C7FF8A",
"6.	c #B9F480",
"7.	c #84BA58",
"8.	c #437221",
"9.	c #8C9791",
"0.	c #566453",
"a.	c #5E8244",
"b.	c #93C562",
"c.	c #C4F67D",
"d.	c #CCFF88",
"e.	c #D2FF91",
"f.	c #C5FF82",
"g.	c #BCF17B",
"h.	c #9FCC6D",
"i.	c #6C8B52",
"j.	c #566D53",
"k.	c #7D7F8C",
"l.	c #4F6541",
"m.	c #49701D",
"n.	c #6E9E26",
"o.	c #95C84F",
"p.	c #AEE566",
"q.	c #91C846",
"r.	c #72A32E",
"s.	c #517424",
"t.	c #46593D",
"u.	c #818892",
"v.	c #898989",
"w.	c #646464",
"x.	c #535353",
"y.	c #464646",
"z.	c #3F3F3F",
"A.	c #444444",
"B.	c #4F4F4F",
"C.	c #8B8B8B",
"D.	c #A5A5A5",
"E.	c #878787",
"F.	c #7C7C7C",
"G.	c #787878",
"H.	c #808080",
"I.	c #909090",
"                              ",
"        . + @ # $ % &         ",
"      * = - ; > , ' ) !       ",
"    ~ { ] ^ / ( _ : < [ }     ",
"  | 1 2 3 4 5 6 7 4 8 9 0 a   ",
"  b c d e f g h g i j k l m   ",
"  n o p q r s t u v w x y z   ",
"  A B C D E F G H I J K L M   ",
"  N O P Q R S T U V W X Y Z   ",
"  `  ...+.@.#.$.%.&.*.=.-.;.  ",
"  >.,.'.).!.~.{.].^./.(._.:.  ",
"  <.[.}.|.1.2.3.4.5.6.7.8.9.  ",
"    0.a.b.c.d.e.f.g.h.i.j.    ",
"    k.l.m.n.o.p.q.r.s.t.u.    ",
"      v.w.x.y.z.A.B.w.C.      ",
"        D.E.F.G.H.I.D.        ",
"                              "};
